<?xml version="1.0" standalone="no"?><!DOCTYPE svg PUBLIC "-//W3C//DTD SVG 1.1//EN" "http://www.w3.org/Graphics/SVG/1.1/DTD/svg11.dtd"><svg t="1646202930458" class="icon" viewBox="0 0 1024 1024" version="1.1" xmlns="http://www.w3.org/2000/svg" p-id="3006" id="mx_n_1646202930458" xmlns:xlink="http://www.w3.org/1999/xlink" width="200" height="200"><defs><style type="text/css">@font-face { font-family: feedback-iconfont; src: url("//at.alicdn.com/t/font_1031158_u69w8yhxdu.woff2?t=1630033759944") format("woff2"), url("//at.alicdn.com/t/font_1031158_u69w8yhxdu.woff?t=1630033759944") format("woff"), url("//at.alicdn.com/t/font_1031158_u69w8yhxdu.ttf?t=1630033759944") format("truetype"); }
</style></defs><path d="M640 170.666667a42.666667 42.666667 0 0 1 42.666667 42.666666v128h128a42.666667 42.666667 0 0 1 42.666666 42.666667v426.666667a42.666667 42.666667 0 0 1-42.666666 42.666666H384a42.666667 42.666667 0 0 1-42.666667-42.666666v-128H213.333333a42.666667 42.666667 0 0 1-42.666666-42.666667V213.333333a42.666667 42.666667 0 0 1 42.666666-42.666666h426.666667z m170.666667 213.333333h-128v256a42.666667 42.666667 0 0 1-42.666667 42.666667H384v128h426.666667V384z m-170.666667-170.666667H213.333333v426.666667h128V384a42.666667 42.666667 0 0 1 42.666667-42.666667h256V213.333333z m0 170.666667H384v256h256V384z" fill="#7d6c8d" p-id="3007"></path></svg>